<mxfile>
    <diagram id="zRiZhJNBTAvJ8HZTbkJA" name="Page-1">
        <mxGraphModel dx="574" dy="790" grid="1" gridSize="10" guides="1" tooltips="1" connect="1" arrows="1" fold="1" page="1" pageScale="1" pageWidth="1169" pageHeight="827" background="#283618" math="0" shadow="0">
            <root>
                <mxCell id="0"/>
                <mxCell id="1" parent="0"/>
                <mxCell id="14" value="PathFinder" style="swimlane;fontStyle=0;childLayout=stackLayout;horizontal=1;startSize=26;fillColor=none;horizontalStack=0;resizeParent=1;resizeParentMax=0;resizeLast=0;collapsible=1;marginBottom=0;strokeColor=#DDA15E;fontColor=#FEFAE0;fontFamily=Lucida Console;align=center;rounded=1;" parent="1" vertex="1">
                    <mxGeometry x="580" y="80" width="180" height="384" as="geometry"/>
                </mxCell>
                <mxCell id="15" value="- map" style="text;strokeColor=none;fillColor=none;align=left;verticalAlign=top;spacingLeft=4;spacingRight=4;overflow=hidden;rotatable=0;points=[[0,0.5],[1,0.5]];portConstraint=eastwest;fontColor=#FEFAE0;fontFamily=Lucida Console;rounded=1;" parent="14" vertex="1">
                    <mxGeometry y="26" width="180" height="26" as="geometry"/>
                </mxCell>
                <mxCell id="16" value="- directions" style="text;strokeColor=none;fillColor=none;align=left;verticalAlign=top;spacingLeft=4;spacingRight=4;overflow=hidden;rotatable=0;points=[[0,0.5],[1,0.5]];portConstraint=eastwest;fontColor=#FEFAE0;fontFamily=Lucida Console;rounded=1;" parent="14" vertex="1">
                    <mxGeometry y="52" width="180" height="26" as="geometry"/>
                </mxCell>
                <mxCell id="29" value="" style="line;strokeWidth=2;html=1;shadow=0;glass=0;sketch=0;fontFamily=Comic Sans MS;fontColor=#FEFAE0;fillColor=none;align=center;strokeColor=#DDA15E;rounded=1;labelBackgroundColor=#283618;" parent="14" vertex="1">
                    <mxGeometry y="78" width="180" height="10" as="geometry"/>
                </mxCell>
                <mxCell id="23" value="+ find()" style="text;strokeColor=none;fillColor=none;align=left;verticalAlign=top;spacingLeft=4;spacingRight=4;overflow=hidden;rotatable=0;points=[[0,0.5],[1,0.5]];portConstraint=eastwest;fontColor=#FEFAE0;fontFamily=Lucida Console;rounded=1;" parent="14" vertex="1">
                    <mxGeometry y="88" width="180" height="26" as="geometry"/>
                </mxCell>
                <mxCell id="30" value="- aStar()" style="text;strokeColor=none;fillColor=none;align=left;verticalAlign=top;spacingLeft=4;spacingRight=4;overflow=hidden;rotatable=0;points=[[0,0.5],[1,0.5]];portConstraint=eastwest;fontColor=#FEFAE0;fontFamily=Lucida Console;rounded=1;" parent="14" vertex="1">
                    <mxGeometry y="114" width="180" height="26" as="geometry"/>
                </mxCell>
                <mxCell id="31" value="- reconstructPath()" style="text;strokeColor=none;fillColor=none;align=left;verticalAlign=top;spacingLeft=4;spacingRight=4;overflow=hidden;rotatable=0;points=[[0,0.5],[1,0.5]];portConstraint=eastwest;fontColor=#FEFAE0;fontFamily=Lucida Console;rounded=1;" parent="14" vertex="1">
                    <mxGeometry y="140" width="180" height="26" as="geometry"/>
                </mxCell>
                <mxCell id="32" value="- huristic()" style="text;strokeColor=none;fillColor=none;align=left;verticalAlign=top;spacingLeft=4;spacingRight=4;overflow=hidden;rotatable=0;points=[[0,0.5],[1,0.5]];portConstraint=eastwest;fontColor=#FEFAE0;fontFamily=Lucida Console;rounded=1;" parent="14" vertex="1">
                    <mxGeometry y="166" width="180" height="26" as="geometry"/>
                </mxCell>
                <mxCell id="34" value="- popBackMin()" style="text;strokeColor=none;fillColor=none;align=left;verticalAlign=top;spacingLeft=4;spacingRight=4;overflow=hidden;rotatable=0;points=[[0,0.5],[1,0.5]];portConstraint=eastwest;fontColor=#FEFAE0;fontFamily=Lucida Console;rounded=1;" parent="14" vertex="1">
                    <mxGeometry y="192" width="180" height="26" as="geometry"/>
                </mxCell>
                <mxCell id="33" value="+ bfs()" style="text;strokeColor=none;fillColor=none;align=left;verticalAlign=top;spacingLeft=4;spacingRight=4;overflow=hidden;rotatable=0;points=[[0,0.5],[1,0.5]];portConstraint=eastwest;fontColor=#FEFAE0;fontFamily=Lucida Console;rounded=1;" parent="14" vertex="1">
                    <mxGeometry y="218" width="180" height="26" as="geometry"/>
                </mxCell>
                <mxCell id="108" value="Path" style="swimlane;fontStyle=0;childLayout=stackLayout;horizontal=1;startSize=26;fillColor=none;horizontalStack=0;resizeParent=1;resizeParentMax=0;resizeLast=0;collapsible=1;marginBottom=0;strokeColor=#DDA15E;fontColor=#FEFAE0;fontFamily=Lucida Console;align=center;rounded=1;" parent="14" vertex="1">
                    <mxGeometry y="244" width="180" height="140" as="geometry"/>
                </mxCell>
                <mxCell id="109" value="- path" style="text;strokeColor=none;fillColor=none;align=left;verticalAlign=top;spacingLeft=4;spacingRight=4;overflow=hidden;rotatable=0;points=[[0,0.5],[1,0.5]];portConstraint=eastwest;fontColor=#FEFAE0;fontFamily=Lucida Console;rounded=1;" parent="108" vertex="1">
                    <mxGeometry y="26" width="180" height="26" as="geometry"/>
                </mxCell>
                <mxCell id="116" value="" style="line;strokeWidth=2;html=1;shadow=0;glass=0;sketch=0;fontFamily=Comic Sans MS;fontColor=#FEFAE0;fillColor=none;align=center;strokeColor=#DDA15E;rounded=1;labelBackgroundColor=#283618;" parent="108" vertex="1">
                    <mxGeometry y="52" width="180" height="10" as="geometry"/>
                </mxCell>
                <mxCell id="117" value="+ hasNext()" style="text;strokeColor=none;fillColor=none;align=left;verticalAlign=top;spacingLeft=4;spacingRight=4;overflow=hidden;rotatable=0;points=[[0,0.5],[1,0.5]];portConstraint=eastwest;fontColor=#FEFAE0;fontFamily=Lucida Console;rounded=1;" parent="108" vertex="1">
                    <mxGeometry y="62" width="180" height="26" as="geometry"/>
                </mxCell>
                <mxCell id="118" value="+ next()" style="text;strokeColor=none;fillColor=none;align=left;verticalAlign=top;spacingLeft=4;spacingRight=4;overflow=hidden;rotatable=0;points=[[0,0.5],[1,0.5]];portConstraint=eastwest;fontColor=#FEFAE0;fontFamily=Lucida Console;rounded=1;" parent="108" vertex="1">
                    <mxGeometry y="88" width="180" height="26" as="geometry"/>
                </mxCell>
                <mxCell id="119" value="+ length()" style="text;strokeColor=none;fillColor=none;align=left;verticalAlign=top;spacingLeft=4;spacingRight=4;overflow=hidden;rotatable=0;points=[[0,0.5],[1,0.5]];portConstraint=eastwest;fontColor=#FEFAE0;fontFamily=Lucida Console;rounded=1;" parent="108" vertex="1">
                    <mxGeometry y="114" width="180" height="26" as="geometry"/>
                </mxCell>
                <mxCell id="144" style="edgeStyle=orthogonalEdgeStyle;orthogonalLoop=1;jettySize=auto;html=1;entryX=0.5;entryY=1;entryDx=0;entryDy=0;strokeColor=#DDA15E;fontColor=#FEFAE0;labelBackgroundColor=#283618;" parent="1" source="80" target="107" edge="1">
                    <mxGeometry relative="1" as="geometry"/>
                </mxCell>
                <mxCell id="80" value="SpriteRenderer" style="swimlane;fontStyle=0;childLayout=stackLayout;horizontal=1;startSize=26;fillColor=none;horizontalStack=0;resizeParent=1;resizeParentMax=0;resizeLast=0;collapsible=1;marginBottom=0;strokeColor=#DDA15E;fontColor=#FEFAE0;fontFamily=Lucida Console;align=center;rounded=1;" parent="1" vertex="1">
                    <mxGeometry x="780" y="80" width="180" height="296" as="geometry"/>
                </mxCell>
                <mxCell id="81" value="- imageView" style="text;strokeColor=none;fillColor=none;align=left;verticalAlign=top;spacingLeft=4;spacingRight=4;overflow=hidden;rotatable=0;points=[[0,0.5],[1,0.5]];portConstraint=eastwest;fontColor=#FEFAE0;fontFamily=Lucida Console;rounded=1;" parent="80" vertex="1">
                    <mxGeometry y="26" width="180" height="26" as="geometry"/>
                </mxCell>
                <mxCell id="82" value="- count" style="text;strokeColor=none;fillColor=none;align=left;verticalAlign=top;spacingLeft=4;spacingRight=4;overflow=hidden;rotatable=0;points=[[0,0.5],[1,0.5]];portConstraint=eastwest;fontColor=#FEFAE0;fontFamily=Lucida Console;rounded=1;" parent="80" vertex="1">
                    <mxGeometry y="52" width="180" height="26" as="geometry"/>
                </mxCell>
                <mxCell id="83" value="- columns" style="text;strokeColor=none;fillColor=none;align=left;verticalAlign=top;spacingLeft=4;spacingRight=4;overflow=hidden;rotatable=0;points=[[0,0.5],[1,0.5]];portConstraint=eastwest;fontColor=#FEFAE0;fontFamily=Lucida Console;rounded=1;" parent="80" vertex="1">
                    <mxGeometry y="78" width="180" height="26" as="geometry"/>
                </mxCell>
                <mxCell id="84" value="- offsetX" style="text;strokeColor=none;fillColor=none;align=left;verticalAlign=top;spacingLeft=4;spacingRight=4;overflow=hidden;rotatable=0;points=[[0,0.5],[1,0.5]];portConstraint=eastwest;fontColor=#FEFAE0;fontFamily=Lucida Console;rounded=1;" parent="80" vertex="1">
                    <mxGeometry y="104" width="180" height="26" as="geometry"/>
                </mxCell>
                <mxCell id="85" value="- offsetY" style="text;strokeColor=none;fillColor=none;align=left;verticalAlign=top;spacingLeft=4;spacingRight=4;overflow=hidden;rotatable=0;points=[[0,0.5],[1,0.5]];portConstraint=eastwest;fontColor=#FEFAE0;fontFamily=Lucida Console;rounded=1;" parent="80" vertex="1">
                    <mxGeometry y="130" width="180" height="26" as="geometry"/>
                </mxCell>
                <mxCell id="86" value="- width" style="text;strokeColor=none;fillColor=none;align=left;verticalAlign=top;spacingLeft=4;spacingRight=4;overflow=hidden;rotatable=0;points=[[0,0.5],[1,0.5]];portConstraint=eastwest;fontColor=#FEFAE0;fontFamily=Lucida Console;rounded=1;" parent="80" vertex="1">
                    <mxGeometry y="156" width="180" height="26" as="geometry"/>
                </mxCell>
                <mxCell id="87" value="- height" style="text;strokeColor=none;fillColor=none;align=left;verticalAlign=top;spacingLeft=4;spacingRight=4;overflow=hidden;rotatable=0;points=[[0,0.5],[1,0.5]];portConstraint=eastwest;fontColor=#FEFAE0;fontFamily=Lucida Console;rounded=1;" parent="80" vertex="1">
                    <mxGeometry y="182" width="180" height="26" as="geometry"/>
                </mxCell>
                <mxCell id="90" value="- lastIndex" style="text;strokeColor=none;fillColor=none;align=left;verticalAlign=top;spacingLeft=4;spacingRight=4;overflow=hidden;rotatable=0;points=[[0,0.5],[1,0.5]];portConstraint=eastwest;fontColor=#FEFAE0;fontFamily=Lucida Console;rounded=1;" parent="80" vertex="1">
                    <mxGeometry y="208" width="180" height="26" as="geometry"/>
                </mxCell>
                <mxCell id="89" value="" style="line;strokeWidth=2;html=1;shadow=0;glass=0;sketch=0;fontFamily=Comic Sans MS;fontColor=#FEFAE0;fillColor=none;align=center;strokeColor=#DDA15E;rounded=1;labelBackgroundColor=#283618;" parent="80" vertex="1">
                    <mxGeometry y="234" width="180" height="10" as="geometry"/>
                </mxCell>
                <mxCell id="91" value="# interpolate()" style="text;strokeColor=none;fillColor=none;align=left;verticalAlign=top;spacingLeft=4;spacingRight=4;overflow=hidden;rotatable=0;points=[[0,0.5],[1,0.5]];portConstraint=eastwest;fontColor=#FEFAE0;fontFamily=Lucida Console;rounded=1;" parent="80" vertex="1">
                    <mxGeometry y="244" width="180" height="26" as="geometry"/>
                </mxCell>
                <mxCell id="92" value="+ setDuration()" style="text;strokeColor=none;fillColor=none;align=left;verticalAlign=top;spacingLeft=4;spacingRight=4;overflow=hidden;rotatable=0;points=[[0,0.5],[1,0.5]];portConstraint=eastwest;fontColor=#FEFAE0;fontFamily=Lucida Console;rounded=1;" parent="80" vertex="1">
                    <mxGeometry y="270" width="180" height="26" as="geometry"/>
                </mxCell>
                <mxCell id="107" value="javafx.animation.Transition" style="swimlane;fontStyle=0;childLayout=stackLayout;horizontal=1;startSize=30;fillColor=none;horizontalStack=0;resizeParent=1;resizeParentMax=0;resizeLast=0;collapsible=1;marginBottom=0;strokeColor=#DDA15E;fontColor=#FEFAE0;fontFamily=Lucida Console;align=center;arcSize=0;rounded=1;" parent="1" vertex="1">
                    <mxGeometry x="780" y="10" width="180" height="30" as="geometry"/>
                </mxCell>
                <mxCell id="133" value="PlayerController" style="swimlane;fontStyle=0;childLayout=stackLayout;horizontal=1;startSize=26;fillColor=none;horizontalStack=0;resizeParent=1;resizeParentMax=0;resizeLast=0;collapsible=1;marginBottom=0;strokeColor=#DDA15E;fontColor=#FEFAE0;fontFamily=Lucida Console;align=center;rounded=1;" parent="1" vertex="1">
                    <mxGeometry x="980" y="80" width="180" height="218" as="geometry"/>
                </mxCell>
                <mxCell id="134" value="- player" style="text;strokeColor=none;fillColor=none;align=left;verticalAlign=top;spacingLeft=4;spacingRight=4;overflow=hidden;rotatable=0;points=[[0,0.5],[1,0.5]];portConstraint=eastwest;fontColor=#FEFAE0;fontFamily=Lucida Console;rounded=1;" parent="133" vertex="1">
                    <mxGeometry y="26" width="180" height="26" as="geometry"/>
                </mxCell>
                <mxCell id="135" value="- up" style="text;strokeColor=none;fillColor=none;align=left;verticalAlign=top;spacingLeft=4;spacingRight=4;overflow=hidden;rotatable=0;points=[[0,0.5],[1,0.5]];portConstraint=eastwest;fontColor=#FEFAE0;fontFamily=Lucida Console;rounded=1;" parent="133" vertex="1">
                    <mxGeometry y="52" width="180" height="26" as="geometry"/>
                </mxCell>
                <mxCell id="143" value="- right" style="text;strokeColor=none;fillColor=none;align=left;verticalAlign=top;spacingLeft=4;spacingRight=4;overflow=hidden;rotatable=0;points=[[0,0.5],[1,0.5]];portConstraint=eastwest;fontColor=#FEFAE0;fontFamily=Lucida Console;rounded=1;" parent="133" vertex="1">
                    <mxGeometry y="78" width="180" height="26" as="geometry"/>
                </mxCell>
                <mxCell id="137" value="- down" style="text;strokeColor=none;fillColor=none;align=left;verticalAlign=top;spacingLeft=4;spacingRight=4;overflow=hidden;rotatable=0;points=[[0,0.5],[1,0.5]];portConstraint=eastwest;fontColor=#FEFAE0;fontFamily=Lucida Console;rounded=1;" parent="133" vertex="1">
                    <mxGeometry y="104" width="180" height="26" as="geometry"/>
                </mxCell>
                <mxCell id="139" value="- left" style="text;strokeColor=none;fillColor=none;align=left;verticalAlign=top;spacingLeft=4;spacingRight=4;overflow=hidden;rotatable=0;points=[[0,0.5],[1,0.5]];portConstraint=eastwest;fontColor=#FEFAE0;fontFamily=Lucida Console;rounded=1;" parent="133" vertex="1">
                    <mxGeometry y="130" width="180" height="26" as="geometry"/>
                </mxCell>
                <mxCell id="140" value="- shoot" style="text;strokeColor=none;fillColor=none;align=left;verticalAlign=top;spacingLeft=4;spacingRight=4;overflow=hidden;rotatable=0;points=[[0,0.5],[1,0.5]];portConstraint=eastwest;fontColor=#FEFAE0;fontFamily=Lucida Console;rounded=1;" parent="133" vertex="1">
                    <mxGeometry y="156" width="180" height="26" as="geometry"/>
                </mxCell>
                <mxCell id="136" value="" style="line;strokeWidth=2;html=1;shadow=0;glass=0;sketch=0;fontFamily=Comic Sans MS;fontColor=#FEFAE0;fillColor=none;align=center;strokeColor=#DDA15E;rounded=1;labelBackgroundColor=#283618;" parent="133" vertex="1">
                    <mxGeometry y="182" width="180" height="10" as="geometry"/>
                </mxCell>
                <mxCell id="138" value="+ keyHandler()" style="text;strokeColor=none;fillColor=none;align=left;verticalAlign=top;spacingLeft=4;spacingRight=4;overflow=hidden;rotatable=0;points=[[0,0.5],[1,0.5]];portConstraint=eastwest;fontColor=#FEFAE0;fontFamily=Lucida Console;rounded=1;" parent="133" vertex="1">
                    <mxGeometry y="192" width="180" height="26" as="geometry"/>
                </mxCell>
                <mxCell id="152" style="edgeStyle=orthogonalEdgeStyle;orthogonalLoop=1;jettySize=auto;html=1;entryX=0;entryY=0.5;entryDx=0;entryDy=0;labelBackgroundColor=#283618;strokeColor=#DDA15E;fontColor=#FEFAE0;endSize=10;endArrow=diamondThin;endFill=1;" edge="1" parent="1" source="150" target="15">
                    <mxGeometry relative="1" as="geometry"/>
                </mxCell>
                <mxCell id="150" value="ir.ac.kntu.core.Map" style="swimlane;fontStyle=0;childLayout=stackLayout;horizontal=1;startSize=30;fillColor=none;horizontalStack=0;resizeParent=1;resizeParentMax=0;resizeLast=0;collapsible=1;marginBottom=0;strokeColor=#DDA15E;fontColor=#FEFAE0;fontFamily=Lucida Console;align=center;arcSize=0;rounded=1;" vertex="1" parent="1">
                    <mxGeometry x="450" y="10" width="180" height="30" as="geometry"/>
                </mxCell>
            </root>
        </mxGraphModel>
    </diagram>
</mxfile>